#N canvas 0 51 1366 694 10;
#X obj 118 158 wiimote-guts;
#X symbolatom 116 119 18 0 0 0 mac-address - -, f 18;
#X obj 216 81 bng 15 250 50 0 empty empty discover 17 7 0 10 -260353
-1 -1;
#X obj 302 81 bng 15 250 50 0 empty empty Disconnect 17 7 0 10 -254016
-1 -1;
#X obj 116 81 bng 15 250 50 0 empty empty Perfect-pair 17 7 0 10 -98241
-1 -1;
#X obj 64 270 nbx 2 16 -1e+37 1e+37 0 0 empty empty empty -100 10 0
12 -225280 -1 -1 0 256 0;
#X obj 99 270 nbx 2 16 -1e+37 1e+37 0 0 empty empty empty 0 10 0 12
-225280 -1 -1 0 256 0;
#X floatatom 429 283 7 0 0 1 _X - -, f 7;
#X floatatom 489 283 7 0 0 1 _Y - -, f 7;
#X floatatom 549 283 7 0 0 1 _Z - -, f 7;
#X floatatom 714 278 7 0 0 1 _PITCH - -, f 7;
#X floatatom 727 301 7 0 0 1 _ROLL - -, f 7;
#X floatatom 1130 183 7 0 0 1 Acceleration-y - -, f 7;
#X floatatom 1128 204 7 0 0 1 Acceleration-z - -, f 7;
#X floatatom 1129 163 7 0 0 1 Acceleration-X - -, f 7;
#X obj 1074 224 nbx 3 16 -1e+37 1e+37 0 0 empty empty Nunchuck-buttons
-99 8 0 10 -261681 -1 -1 0 256 0;
#X floatatom 774 407 5 0 0 0 X - -, f 5;
#X floatatom 819 407 5 0 0 0 Y - -, f 5;
#X floatatom 864 407 5 0 0 0 Z - -, f 5;
#X text 431 243 Wiimote Acceleration;
#X text 699 243 Wiimote Pitch/roll;
#X text 1125 133 Nunchuck Acceleration;
#X text 761 360 Wii Motion Plus Wiimote;
#X floatatom 906 287 5 0 0 0 X - -, f 5;
#X floatatom 948 286 5 0 0 0 Y - -, f 5;
#X text 896 259 Nunchuck AnalogStick;
#X obj 400 81 hradio 15 0 0 4 empty empty Wiimote-lights 0 -8 0 10
-118207 -1 -1 0;
#X text 49 245 Wiimote Buttons;
#X obj 18 359 tgl 15 0 empty empty Left 17 7 0 10 -262144 -1 -1 0 1
;
#X obj 60 357 tgl 15 0 empty empty Up 17 7 0 10 -262144 -1 -1 0 1;
#X obj 60 313 & 8;
#X obj 97 356 tgl 15 0 empty empty Right 17 7 0 10 -262144 -1 -1 0
1;
#X obj 97 312 & 2;
#X obj 18 315 & 1;
#X obj 18 337 > 0;
#X obj 60 335 > 0;
#X obj 97 334 > 0;
#X obj 17 505 tgl 15 0 empty empty Down 17 7 0 10 -262144 -1 -1 0 1
;
#X obj 17 483 > 0;
#X obj 17 461 & 4;
#X obj 64 505 tgl 15 0 empty empty Plus 17 7 0 10 -262144 -1 -1 0 1
;
#X obj 64 483 > 0;
#X obj 64 461 & 16;
#X obj 193 357 tgl 15 0 empty empty A 17 7 0 10 -262144 -1 -1 0 1;
#X obj 193 335 > 0;
#X obj 193 313 & 8;
#X obj 231 359 tgl 15 0 empty empty B 17 7 0 10 -262144 -1 -1 0 1;
#X obj 231 337 > 0;
#X obj 231 315 & 4;
#X obj 270 361 tgl 15 0 empty empty Minus 17 7 0 10 -262144 -1 -1 0
1;
#X obj 270 339 > 0;
#X obj 270 317 & 16;
#X obj 249 532 tgl 15 0 empty empty Home 17 7 0 10 -262144 -1 -1 0
1;
#X obj 249 510 > 0;
#X obj 249 488 & 128;
#X obj 306 535 tgl 15 0 empty empty 1 17 7 0 10 -262144 -1 -1 0 1;
#X obj 306 513 > 0;
#X obj 306 491 & 2;
#X obj 353 536 tgl 15 0 empty empty 2 17 7 0 10 -262144 -1 -1 0 1;
#X obj 353 514 > 0;
#X obj 353 492 & 1;
#X obj 1073 315 tgl 15 0 empty empty Z 17 7 0 10 -262144 -1 -1 0 1
;
#X obj 1073 293 > 0;
#X obj 1073 271 & 1;
#X obj 1113 314 tgl 15 0 empty empty C 17 7 0 10 -262144 -1 -1 0 1
;
#X obj 1113 292 > 0;
#X obj 1113 270 & 2;
#X obj 503 82 tgl 15 0 empty empty Rumble_on/off 17 7 0 10 -262144
-1 -1 0 1;
#X obj 464 663 sendOSC;
#X msg 458 579 connect localhost 57120;
#X text 613 578 Sending values to a local SuperCollider on port 57120
;
#X text 29 18 This patch captures wiimote data \, converts to OSC messages
\, and sends the data to SuperCollider.;
#X msg 272 433 send /wii/button/minus \$1;
#X msg 192 386 send /wii/button/a \$1;
#X msg 250 562 send /wii/button/home \$1;
#X msg 62 552 send /wii/button/plus \$1;
#X msg 521 395 send /wii/axis/x \$1;
#X msg 536 421 send /wii/axis/y \$1;
#X obj 175 274 bng 15 250 50 0 empty empty empty 17 7 0 10 -262144
-1 -1;
#X obj 14 271 bng 15 250 50 0 empty empty empty 17 7 0 10 -262144 -1
-1;
#X obj 459 550 loadbang;
#X text 231 120 <-- if you know your wiimote unique MAC address \,
use it here (you can find it from terminal command hcitool scan \;
make sure bluetooth is on \, and press wiimote buttons 1 and 2 simultaneously
to scan), f 115;
#X msg 232 409 send /wii/button/b \$1;
#X msg 17 380 send /wii/button/left \$1;
#X msg 34 404 send /wii/button/up \$1;
#X msg 99 429 send /wii/button/right \$1;
#X msg 19 531 send /wii/button/down \$1;
#X msg 555 448 send /wii/axis/z \$1;
#X msg 712 497 send /wii/pitch \$1;
#X msg 722 525 send /wii/roll \$1;
#X msg 294 587 send /wii/button/1 \$1;
#X msg 327 615 send /wii/button/2 \$1;
#X connect 0 0 5 0;
#X connect 0 1 6 0;
#X connect 0 2 7 0;
#X connect 0 3 8 0;
#X connect 0 4 9 0;
#X connect 0 5 10 0;
#X connect 0 6 11 0;
#X connect 0 7 14 0;
#X connect 0 8 12 0;
#X connect 0 9 13 0;
#X connect 0 10 15 0;
#X connect 0 11 23 0;
#X connect 0 12 24 0;
#X connect 0 13 16 0;
#X connect 0 14 17 0;
#X connect 0 15 18 0;
#X connect 1 0 0 0;
#X connect 2 0 0 1;
#X connect 3 0 0 2;
#X connect 4 0 1 0;
#X connect 5 0 30 0;
#X connect 5 0 32 0;
#X connect 5 0 33 0;
#X connect 5 0 39 0;
#X connect 5 0 42 0;
#X connect 5 0 79 0;
#X connect 6 0 45 0;
#X connect 6 0 48 0;
#X connect 6 0 51 0;
#X connect 6 0 54 0;
#X connect 6 0 57 0;
#X connect 6 0 60 0;
#X connect 6 0 78 0;
#X connect 7 0 76 0;
#X connect 8 0 77 0;
#X connect 9 0 87 0;
#X connect 10 0 88 0;
#X connect 11 0 89 0;
#X connect 15 0 63 0;
#X connect 15 0 66 0;
#X connect 26 0 0 3;
#X connect 28 0 83 0;
#X connect 29 0 84 0;
#X connect 30 0 35 0;
#X connect 31 0 85 0;
#X connect 32 0 36 0;
#X connect 33 0 34 0;
#X connect 34 0 28 0;
#X connect 35 0 29 0;
#X connect 36 0 31 0;
#X connect 37 0 86 0;
#X connect 38 0 37 0;
#X connect 39 0 38 0;
#X connect 40 0 75 0;
#X connect 41 0 40 0;
#X connect 42 0 41 0;
#X connect 43 0 73 0;
#X connect 44 0 43 0;
#X connect 45 0 44 0;
#X connect 46 0 82 0;
#X connect 47 0 46 0;
#X connect 48 0 47 0;
#X connect 49 0 72 0;
#X connect 50 0 49 0;
#X connect 51 0 50 0;
#X connect 52 0 74 0;
#X connect 53 0 52 0;
#X connect 54 0 53 0;
#X connect 55 0 90 0;
#X connect 56 0 55 0;
#X connect 57 0 56 0;
#X connect 58 0 91 0;
#X connect 59 0 58 0;
#X connect 60 0 59 0;
#X connect 62 0 61 0;
#X connect 63 0 62 0;
#X connect 65 0 64 0;
#X connect 66 0 65 0;
#X connect 67 0 0 4;
#X connect 69 0 68 0;
#X connect 72 0 68 0;
#X connect 73 0 68 0;
#X connect 74 0 68 0;
#X connect 75 0 68 0;
#X connect 76 0 68 0;
#X connect 77 0 68 0;
#X connect 80 0 69 0;
#X connect 83 0 68 0;
#X connect 84 0 68 0;
#X connect 85 0 68 0;
#X connect 86 0 68 0;
#X connect 87 0 68 0;
#X connect 88 0 68 0;
#X connect 89 0 68 0;
#X connect 90 0 68 0;
#X connect 91 0 68 0;
